<svg height="457pt" viewBox="-66 0 457 457.37787" width="457pt" xmlns="http://www.w3.org/2000/svg"><path d="m149.78125 120.007812v8h16v-8c13.257812 0 24-10.746093 24-24 0-13.253906-10.742188-24-24-24h-16.167969c-4.417969 0-8-3.582031-8-8 0-4.417968 3.582031-8 8-8h16c2.148438.011719 4.203125.882813 5.703125 2.414063 1.503906 1.535156 2.328125 3.605469 2.296875 5.753906l16-.167969c0-13.253906-10.742187-24-24-24v-8h-16v8c-13.253906 0-24 10.746094-24 24 0 13.253907 10.746094 24 24 24h16.167969c2.128906.023438 4.160156.902344 5.632812 2.4375 1.472657 1.535157 2.265626 3.601563 2.199219 5.730469-.003906 4.324219-3.507812 7.828125-7.832031 7.832031h-16.167969c-4.300781-.265624-7.734375-3.699218-8-8l-16 .335938c.421875 13.019531 10.976563 23.425781 24 23.664062zm0 0"/><path d="m256.925781 128.007812h20.6875c26.5-.027343 47.972657-21.503906 48-48 0-4.417968-3.582031-8-8-8h-24c-25.136719.023438-45.996093 19.441407-47.824219 44.511719l-37.832031 37.832031c-1.5 1.5-2.34375 3.535157-2.34375 5.65625v32h-40v-32.410156c42.414063-4.261718 74.035157-41.03125 71.902344-83.601562-2.136719-42.574219-37.273437-75.996094-79.902344-75.996094-42.625 0-77.765625 33.421875-79.898437 75.996094-2.132813 42.570312 29.488281 79.339844 71.898437 83.601562v32.410156h-48v-32c0-4.417968-3.582031-8-8-8h-8.71875c-3.917969-23.066406-23.882812-39.957031-47.28125-40h-24c-4.417969 0-8 3.582032-8 8 .027344 26.496094 21.503907 47.972657 48 48h32v24h-16c-4.417969 0-8 3.582032-8 8v32c0 4.417969 3.582031 8 8 8h8v65.542969c-5.59375 1.835938-10.578125 5.175781-14.398437 9.65625l-15.199219 20.328125c-9.503906-7.195312-22.847656-6.300781-31.304687 2.097656l-9.496094 9.429688c-4.5 4.492188-7.027344 10.585938-7.027344 16.941406 0 6.355469 2.527344 12.449219 7.027344 16.9375l69.40625 69.410156c9.375 9.367188 24.566406 9.367188 33.9375 0l9.375-9.375c9.007812-8.9375 9.414062-23.371093.929687-32.800781 4.253907-3.953125 9.429688-8.167969 12.75-8.167969h64c10.84375.457032 21.449219-3.242187 29.65625-10.34375l64-64c6.285157-5.914062 9.847657-14.164062 9.839844-22.792968-.316406-8.050782-3.996094-15.59375-10.144531-20.800782-11.953125-11.800781-31.210938-11.671874-43.007813.289063l-10.34375 10.335937v-52.6875h8c4.417969 0 8-3.582031 8-8v-32c0-4.417968-3.582031-8-8-8h-24v-28.6875zm36.6875-40h14.984375c-3.664062 14.117188-16.398437 23.980469-30.984375 24h-14.984375c3.664063-14.121093 16.398438-23.984374 30.984375-24zm-200-8c-.027343-34.3125 27.011719-62.542968 61.292969-63.992187 34.285156-1.453125 63.609375 24.390625 66.484375 58.582031 2.871094 34.195313-21.730469 64.566406-55.777344 68.855469v-7.445313h-16v7.445313c-31.964843-4.054687-55.945312-31.222656-56-63.445313zm-40 72c-14.585937-.019531-27.320312-9.882812-30.984375-24h14.984375c14.585938.015626 27.320313 9.878907 30.984375 24zm55.03125 277.65625-9.375 9.367188c-3.125 3.121094-8.1875 3.121094-11.3125 0l-69.40625-69.425781c-1.496093-1.488281-2.335937-3.511719-2.335937-5.621094 0-2.113281.839844-4.136719 2.335937-5.625l9.441407-9.433594c3.113281-3.078125 8.128906-3.078125 11.246093 0l69.40625 69.410157c3.125 3.125 3.125 8.1875 0 11.3125zm150.648438-136c2.78125-2.820312 6.59375-4.378906 10.554687-4.320312 3.957032.0625 7.722656 1.738281 10.414063 4.640625 2.847656 2.296875 4.605469 5.683594 4.847656 9.335937-.132813 4.234376-1.996094 8.226563-5.152344 11.054688l-64 64c-5.191406 4.113281-11.738281 6.121094-18.34375 5.632812h-64c-9.28125 1.175782-17.816406 5.703126-24 12.726563l-50-50.039063 16.402344-21.847656c2.617187-2.574218 5.972656-4.265625 9.597656-4.839844h80v16h-24v16h40c10.84375.457032 21.449219-3.242187 29.65625-10.34375zm-37.679688 15.03125-21.65625 21.65625c-5.1875 4.121094-11.734375 6.140626-18.34375 5.65625v-16c0-8.835937-7.164062-16-16-16h-72v-64h128zm16-84.6875h-160v-16h160zm0 0"/></svg>