<svg height="496pt" viewBox="-80 0 496 496" width="496pt" xmlns="http://www.w3.org/2000/svg"><path d="m176 280v-17.136719c13.761719-3.574219 24-15.992187 24-30.863281 0-17.648438-14.351562-32-32-32-8.824219 0-16-7.175781-16-16s7.175781-16 16-16 16 7.175781 16 16h16c0-14.871094-10.238281-27.289062-24-30.863281v-17.136719h-16v17.136719c-13.761719 3.574219-24 15.992187-24 30.863281 0 17.648438 14.351562 32 32 32 8.824219 0 16 7.175781 16 16s-7.175781 16-16 16-16-7.175781-16-16h-16c0 14.871094 10.238281 27.289062 24 30.863281v17.136719zm0 0"/><path d="m297.710938 341.480469-81.710938-27.25v-14.0625c33.230469-17.375 56-52.136719 56-92.167969 0-1.984375-.183594-3.910156-.296875-5.863281 3.375-6.097657 7.359375-13.335938 10-20.296875l30.296875-7.601563v-60.476562l-30.167969-7.5625c-1.832031-5.535157-4.03125-10.886719-6.574219-15.992188l15.957032-26.640625-42.765625-42.773437-26.640625 15.960937c-5.113282-2.554687-10.464844-4.753906-16-6.585937l-7.570313-30.167969h-60.476562l-7.5625 30.167969c-5.542969 1.832031-10.894531 4.03125-16 6.585937l-26.640625-15.960937-42.765625 42.773437 15.960937 26.640625c-2.546875 5.105469-4.753906 10.457031-6.578125 15.992188l-30.175781 7.5625v60.484375l30.304688 7.59375c2.632812 6.960937 6.617187 14.199218 10 20.296875-.121094 1.953125-.304688 3.878906-.304688 5.863281 0 40.03125 22.769531 74.792969 56 92.167969v14.0625l-81.703125 27.242187c-22.914063 7.632813-38.296875 28.984375-38.296875 53.121094v101.40625h336v-101.40625c0-24.136719-15.382812-45.488281-38.289062-53.113281zm-59.03125-2.824219-18.175782 54.527344-40.527344-40.527344 29.625-23.695312zm-79.519532 85.34375h17.679688l6.222656 56h-30.125zm18.28125-16h-18.882812l-5.871094-29.367188 15.3125-15.320312 15.3125 15.320312zm-109.273437-235.078125-1.28125-4.425781-26.886719-6.734375v-35.523438l26.886719-6.742187 1.28125-4.425782c2.175781-7.519531 5.128906-14.679687 8.761719-21.261718l2.222656-4.03125-14.214844-23.738282 25.109375-25.117187 23.738281 14.214844 4.03125-2.226563c6.582032-3.628906 13.742188-6.574218 21.273438-8.757812l4.414062-1.28125 6.734375-26.871094h35.515625l6.742188 26.878906 4.414062 1.28125c7.53125 2.175782 14.683594 5.128906 21.273438 8.761719l4.03125 2.222656 23.738281-14.214843 25.109375 25.117187-14.214844 23.738281 2.222656 4.03125c3.640626 6.582032 6.585938 13.742188 8.761719 21.261719l1.28125 4.425781 26.886719 6.734375v35.515625l-26.886719 6.742188-1.28125 4.425781c-.257812.878906-.671875 1.871094-1.023437 2.8125-2.761719-8.421875-6.585938-16.34375-11.28125-23.671875.289062-2.855469.472656-5.535156.472656-8.0625 0-48.519531-39.480469-88-88-88s-88 39.480469-88 88c0 2.527344.183594 5.207031.464844 8.0625-4.695313 7.328125-8.519532 15.25-11.28125 23.671875-.34375-.941406-.769532-1.933594-1.015625-2.8125zm170.777343-40.753906c-18.609374-17.414063-43.511718-28.167969-70.945312-28.167969s-52.335938 10.753906-70.945312 28.167969c5.671874-34.078125 35.28125-60.167969 70.945312-60.167969s65.273438 26.089844 70.945312 60.167969zm-158.945312 75.832031c0-48.519531 39.480469-88 88-88s88 39.480469 88 88-39.480469 88-88 88-88-39.480469-88-88zm88 104c11.167969 0 21.910156-1.816406 32-5.089844v9.242188l-32 25.609375-32-25.609375v-9.242188c10.089844 3.273438 20.832031 5.089844 32 5.089844zm-41.601562 16.96875 29.625 23.695312-40.527344 40.527344-18.175782-54.527344zm-110.398438 65.625c0-17.242188 10.992188-32.496094 27.351562-37.945312l38.792969-12.929688 26.367188 79.097656 30.585937-30.585937 4.824219 24.128906-7.082031 63.640625h-64.839844v-64h-16v64h-40zm304 85.40625h-40v-64h-16v64h-64.839844l-7.070312-63.640625 4.820312-24.128906 30.585938 30.585937 26.367187-79.097656 38.792969 12.929688c16.351562 5.457031 27.34375 20.703124 27.34375 37.945312zm0 0"/></svg>