<svg height="480pt" viewBox="-4 0 480 480" width="480pt" xmlns="http://www.w3.org/2000/svg"><path d="m448 0h-240c-13.253906 0-24 10.746094-24 24v24h-24c-13.253906 0-24 10.746094-24 24v24h-24c-13.253906 0-24 10.746094-24 24v106.398438l-82.734375 30.082031c-3.164063 1.148437-5.265625 4.15625-5.265625 7.519531v24c0 4.417969 3.582031 8 8 8h8v80h-8c-4.417969 0-8 3.582031-8 8v32c0 4.417969 3.582031 8 8 8h80v32c0 13.253906 10.746094 24 24 24h240c13.253906 0 24-10.746094 24-24v-24h24c13.253906 0 24-10.746094 24-24v-24h24c13.253906 0 24-10.746094 24-24v-336c0-13.253906-10.746094-24-24-24zm-432 269.601562 80-29.089843 80 29.089843v10.398438h-160zm144 106.398438h-16v-80h16zm-96 0v-80h64v80zm-32-80h16v80h-16zm-16 96h160v16h-160zm344 64c0 4.417969-3.582031 8-8 8h-240c-4.417969 0-8-3.582031-8-8v-32h80c4.417969 0 8-3.582031 8-8v-32c0-4.417969-3.582031-8-8-8h-8v-80h8c4.417969 0 8-3.582031 8-8v-24c0-3.363281-2.101562-6.371094-5.265625-7.519531l-82.734375-30.082031v-106.398438c0-4.417969 3.582031-8 8-8h168v72c0 2.949219 1.625 5.664062 4.226562 7.054688 2.601563 1.390624 5.757813 1.238281 8.214844-.398438l19.558594-13.054688 19.558594 13.039063c2.453125 1.636719 5.609375 1.789063 8.207031.402344 2.601563-1.386719 4.230469-4.09375 4.234375-7.042969v-72h8c4.417969 0 8 3.582031 8 8zm-64-344h32v57.046875l-11.558594-7.703125c-2.691406-1.792969-6.191406-1.792969-8.882812 0l-11.558594 7.703125zm112 296c0 4.417969-3.582031 8-8 8h-24v-296c0-13.253906-10.746094-24-24-24h-200v-24c0-4.417969 3.582031-8 8-8h240c4.417969 0 8 3.582031 8 8zm48-48c0 4.417969-3.582031 8-8 8h-24v-296c0-13.253906-10.746094-24-24-24h-200v-24c0-4.417969 3.582031-8 8-8h240c4.417969 0 8 3.582031 8 8zm0 0"/><path d="m152 144c-17.671875 0-32 14.328125-32 32s14.328125 32 32 32 32-14.328125 32-32-14.328125-32-32-32zm0 48c-8.835938 0-16-7.164062-16-16s7.164062-16 16-16 16 7.164062 16 16-7.164062 16-16 16zm0 0"/><path d="m200 160h16v16h-16zm0 0"/><path d="m232 160h32v16h-32zm0 0"/><path d="m200 192h64v16h-64zm0 0"/><path d="m208 256h120v16h-120zm0 0"/><path d="m208 304h120v16h-120zm0 0"/><path d="m208 352h120v16h-120zm0 0"/><path d="m304 397.121094c-5.382812-.113282-10.707031 1.148437-15.472656 3.664062-5.34375 2.789063-11.71875 2.789063-17.0625 0-4.761719-2.515625-10.082032-3.777344-15.464844-3.664062v16c2.976562-.097656 5.925781.625 8.519531 2.085937 9.726563 4.894531 21.195313 4.894531 30.921875 0 5.351563-2.792969 11.734375-2.792969 17.085938 0 4.761718 2.515625 10.085937 3.78125 15.472656 3.671875v-16c-2.988281.101563-5.941406-.625-8.542969-2.09375-4.757812-2.511718-10.078125-3.773437-15.457031-3.664062zm0 0"/></svg>